<svg width="78" height="78" viewBox="0 0 78 78" fill="none" xmlns="http://www.w3.org/2000/svg">
<g id="surface2701">
<path id="Vector" d="M49.4203 0C33.9962 0 21.4893 12.5069 21.4893 27.9391C21.4893 43.3632 33.9962 55.8701 49.4203 55.8701C64.8525 55.8701 77.3594 43.3632 77.3594 27.9391C77.3594 12.5069 64.8525 0 49.4203 0Z" fill="#D28147"/>
<g id="Group 39754">
<path id="Vector_2" d="M27.9391 21.4922C12.5069 21.4922 0 33.9991 0 49.4232C0 64.8554 12.5069 77.3623 27.9391 77.3623C43.3632 77.3623 55.8701 64.8554 55.8701 49.4232C55.8701 33.9991 43.3632 21.4922 27.9391 21.4922Z" fill="#F6B059"/>
<path id="Vector_3" d="M24.7168 42.9767C21.7431 42.9767 19.3417 45.3862 19.3417 48.3518C19.3417 51.3174 21.7431 53.7269 24.7168 53.7269C27.6823 53.7269 30.0838 51.3174 30.0838 48.3518C30.0838 45.3862 27.6823 42.9767 24.7168 42.9767ZM29.012 30.083C27.231 30.083 25.7886 31.5255 25.7886 33.3064C25.7886 35.0874 27.231 36.5299 29.012 36.5299C30.7929 36.5299 32.2354 35.0874 32.2354 33.3064C32.2354 31.5255 30.7929 30.083 29.012 30.083ZM36.5306 55.8705C34.1614 55.8705 32.2354 57.7965 32.2354 60.1737C32.2354 62.543 34.1614 64.469 36.5306 64.469C38.9079 64.469 40.8339 62.543 40.8339 60.1737C40.8339 57.7965 38.9079 55.8705 36.5306 55.8705ZM11.823 49.4236C10.0421 49.4236 8.59961 50.8661 8.59961 52.647C8.59961 54.428 10.0421 55.8705 11.823 55.8705C13.604 55.8705 15.0465 54.428 15.0465 52.647C15.0465 50.8661 13.604 49.4236 11.823 49.4236ZM41.9057 42.9767C40.1248 42.9767 38.6823 44.4192 38.6823 46.2002C38.6823 47.9811 40.1248 49.4236 41.9057 49.4236C43.6867 49.4236 45.1291 47.9811 45.1291 46.2002C45.1291 44.4192 43.6867 42.9767 41.9057 42.9767ZM21.4933 62.3173C20.3007 62.3173 19.3417 63.2843 19.3417 64.469C19.3417 65.6536 20.3007 66.6206 21.4933 66.6206C22.6779 66.6206 23.6369 65.6536 23.6369 64.469C23.6369 63.2843 22.6779 62.3173 21.4933 62.3173Z" fill="#6D420D"/>
</g>
<path id="Vector_4" d="M42.9769 8.59793C40.6076 8.59793 38.6816 10.5159 38.6816 12.8931C38.6816 15.2704 40.6076 17.1884 42.9769 17.1884C45.3541 17.1884 47.2801 15.2704 47.2801 12.8931C47.2801 10.5159 45.3541 8.59793 42.9769 8.59793ZM54.7988 19.34C53.0178 19.34 51.5754 20.7825 51.5754 22.5634C51.5754 24.3444 53.0178 25.7869 54.7988 25.7869C56.5797 25.7869 58.0222 24.3444 58.0222 22.5634C58.0222 20.7825 56.5797 19.34 54.7988 19.34ZM56.9424 6.44629C55.1614 6.44629 53.7189 7.88877 53.7189 9.66972C53.7189 11.4507 55.1614 12.8931 56.9424 12.8931C58.7233 12.8931 60.1658 11.4507 60.1658 9.66972C60.1658 7.88877 58.7233 6.44629 56.9424 6.44629ZM64.4691 30.0821C63.2845 30.0821 62.3174 31.0491 62.3174 32.2337C62.3174 33.4183 63.2845 34.3854 64.4691 34.3854C65.6537 34.3854 66.6207 33.4183 66.6207 32.2337C66.6207 31.0491 65.6537 30.0821 64.4691 30.0821Z" fill="#7A441D"/>
</g>
</svg>
