<svg width="17" height="17" viewBox="0 0 17 17" fill="none" xmlns="http://www.w3.org/2000/svg">
<path id="Union" fill-rule="evenodd" clip-rule="evenodd" d="M15.9023 5.23594V5.23909C16.2962 6.18751 16.4965 7.19533 16.4965 8.23557C16.4965 12.5779 12.9617 16.1127 8.61936 16.1127C4.27703 16.1127 0.742188 12.5779 0.742188 8.23557C0.742188 3.89322 4.27703 0.358398 8.61936 0.358398C9.4399 0.358398 10.2506 0.486239 11.0225 0.736052C11.0257 0.736052 11.0257 0.739199 11.0257 0.739199H11.0356C11.0466 0.742968 11.0556 0.749689 11.0648 0.756604L11.0735 0.763015L11.0772 0.765599L11.0814 0.768279L11.0837 0.7696L11.0883 0.772067C11.1049 0.781974 11.1247 0.785121 11.141 0.798175C11.141 0.798175 11.141 0.799244 11.1416 0.800137C11.142 0.800778 11.1427 0.801322 11.1441 0.801322C11.1618 0.819369 11.1745 0.837435 11.189 0.85789L11.1932 0.863892C11.1951 0.866437 11.1971 0.868846 11.1992 0.871216L11.2038 0.876305C11.2079 0.880831 11.2121 0.885358 11.2156 0.890389C11.2184 0.894235 11.2209 0.898392 11.2229 0.903054C11.2281 0.912282 11.2316 0.922344 11.2341 0.932853L11.2354 0.93872L11.2369 0.945888L11.2391 0.958864L11.2421 0.967159L11.2454 0.975726L11.2456 0.976367C11.2511 0.990547 11.2567 1.00521 11.2589 1.02143C11.2589 1.0268 11.2582 1.03225 11.2575 1.03791V1.04051C11.2567 1.04787 11.2557 1.05566 11.2557 1.06419C11.2557 1.09389 11.2526 1.12 11.2459 1.14972V1.15287C11.2421 1.16392 11.2354 1.17398 11.2289 1.18354C11.2239 1.19112 11.2191 1.19836 11.2161 1.20553C11.2062 1.22535 11.1995 1.24514 11.1864 1.26134C10.766 1.77359 10.5364 2.41367 10.5364 3.06994C10.5364 4.64177 11.8161 5.92194 13.3884 5.92194C14.1303 5.92194 14.8325 5.63656 15.3676 5.11801C15.372 5.11434 15.3764 5.11121 15.3809 5.10839C15.3872 5.10435 15.3936 5.10095 15.4 5.09757C15.4056 5.09462 15.4112 5.09167 15.4167 5.08831C15.4365 5.07525 15.4496 5.0622 15.4694 5.05229H15.4761C15.4991 5.04283 15.5256 5.03924 15.5517 5.03609C15.5679 5.03609 15.5846 5.02618 15.6008 5.02933C15.6206 5.02933 15.6368 5.03609 15.6566 5.03924C15.6796 5.04239 15.7025 5.04553 15.7223 5.05229C15.7309 5.05643 15.7381 5.06212 15.7457 5.06834L15.7499 5.0718L15.7584 5.0784C15.7845 5.09145 15.8074 5.10451 15.8303 5.12432C15.8303 5.12621 15.8303 5.12696 15.831 5.12727C15.8315 5.12747 15.8323 5.12747 15.8335 5.12747C15.8465 5.14367 15.8564 5.16347 15.8664 5.18328C15.8762 5.19948 15.8925 5.20939 15.8992 5.22918C15.8992 5.23116 15.8992 5.23206 15.8998 5.23299L15.9007 5.23423L15.9023 5.23594ZM3.03962 9.21998C3.03962 9.94559 3.62752 10.533 4.35264 10.533C5.07776 10.533 5.66565 9.94559 5.66565 9.21998C5.66565 8.4944 5.07776 7.90699 4.35264 7.90699C3.62705 7.90699 3.03962 8.49484 3.03962 9.21998ZM6.32146 3.64026C5.77995 3.64026 5.33705 4.08363 5.33705 4.62512C5.33705 5.16663 5.78042 5.61 6.32146 5.60956C6.86344 5.60956 7.30634 5.16663 7.30634 4.62512C7.30634 4.08317 6.86297 3.64026 6.32146 3.64026ZM8.29122 12.5023C8.29122 13.0443 8.73413 13.4872 9.27563 13.4872C9.81714 13.4872 10.2605 13.0438 10.2605 12.5023C10.2605 11.9608 9.81714 11.5179 9.27563 11.5179C8.73413 11.5179 8.29122 11.9608 8.29122 12.5023ZM8.61936 8.07127C8.61936 8.79687 9.20726 9.38429 9.93238 9.38429C10.6575 9.38429 11.2449 8.79687 11.2454 8.07127C11.2454 7.34568 10.6575 6.75827 9.93238 6.75827C9.20679 6.75827 8.61936 7.34613 8.61936 8.07127Z" fill="white"/>
</svg>
