<svg width="33" height="33" viewBox="0 0 33 33" fill="none" xmlns="http://www.w3.org/2000/svg">
<g id="hugeicons:instagram">
<g id="Group">
<path id="Vector" d="M3.50977 16.7529C3.50977 10.812 3.50977 7.84025 5.35518 5.99483C7.2006 4.14941 10.171 4.14941 16.1133 4.14941C22.0542 4.14941 25.0259 4.14941 26.8714 5.99483C28.7168 7.84025 28.7168 10.8107 28.7168 16.7529C28.7168 22.6938 28.7168 25.6656 26.8714 27.511C25.0259 29.3564 22.0555 29.3564 16.1133 29.3564C10.1724 29.3564 7.2006 29.3564 5.35518 27.511C3.50977 25.6656 3.50977 22.6951 3.50977 16.7529Z" stroke="#E9F3E9" stroke-width="1.99003" stroke-linecap="round" stroke-linejoin="round"/>
<path id="Vector_2" d="M23.421 9.45654H23.4077M22.0837 16.7533C22.0837 18.3367 21.4547 19.8552 20.3351 20.9748C19.2155 22.0944 17.697 22.7234 16.1136 22.7234C14.5303 22.7234 13.0118 22.0944 11.8922 20.9748C10.7725 19.8552 10.1436 18.3367 10.1436 16.7533C10.1436 15.1699 10.7725 13.6514 11.8922 12.5318C13.0118 11.4122 14.5303 10.7832 16.1136 10.7832C17.697 10.7832 19.2155 11.4122 20.3351 12.5318C21.4547 13.6514 22.0837 15.1699 22.0837 16.7533Z" stroke="#E9F3E9" stroke-width="1.99003" stroke-linecap="round" stroke-linejoin="round"/>
</g>
</g>
</svg>
