<svg width="33" height="33" viewBox="0 0 33 33" fill="none" xmlns="http://www.w3.org/2000/svg">
<g id="mdi:linkedin">
<path id="Vector" d="M25.4525 4.81543C26.1563 4.81543 26.8311 5.09498 27.3288 5.59258C27.8264 6.09019 28.1059 6.76508 28.1059 7.4688V26.0424C28.1059 26.7461 27.8264 27.421 27.3288 27.9186C26.8311 28.4162 26.1563 28.6958 25.4525 28.6958H6.87895C6.17524 28.6958 5.50034 28.4162 5.00274 27.9186C4.50514 27.421 4.22559 26.7461 4.22559 26.0424V7.4688C4.22559 6.76508 4.50514 6.09019 5.00274 5.59258C5.50034 5.09498 6.17524 4.81543 6.87895 4.81543H25.4525ZM24.7892 25.379V18.3476C24.7892 17.2006 24.3335 16.1005 23.5224 15.2894C22.7113 14.4783 21.6113 14.0226 20.4642 14.0226C19.3365 14.0226 18.0231 14.7125 17.3863 15.7473V14.2747H13.6848V25.379H17.3863V18.8385C17.3863 17.8169 18.2088 16.9811 19.2304 16.9811C19.723 16.9811 20.1954 17.1768 20.5437 17.5251C20.8921 17.8735 21.0877 18.3459 21.0877 18.8385V25.379H24.7892ZM9.37312 12.1918C9.96424 12.1918 10.5312 11.957 10.9491 11.539C11.3671 11.121 11.602 10.5541 11.602 9.96297C11.602 8.72915 10.6069 7.72087 9.37312 7.72087C8.77848 7.72087 8.20819 7.95709 7.78772 8.37756C7.36724 8.79804 7.13103 9.36832 7.13103 9.96297C7.13103 11.1968 8.13931 12.1918 9.37312 12.1918ZM11.2172 25.379V14.2747H7.5423V25.379H11.2172Z" fill="#DEECDE"/>
</g>
</svg>
