<svg width="141" height="53" viewBox="0 0 141 53" fill="none" xmlns="http://www.w3.org/2000/svg">
<path id="Vector" d="M2.13599 6.61322H2.56863C3.48938 6.61322 4.64021 7.72321 6.02141 9.95237L16.1674 23.4918L28.5692 7.2646C29.0754 6.83356 29.6095 6.61337 30.1895 6.61337C31.3957 6.61337 32.1137 7.36551 32.3439 8.86994C32.3439 9.65883 31.23 11.3833 29.0018 14.0345L18.4323 28.115V39.0768C18.2666 40.7279 17.5853 41.5536 16.3792 41.5536H15.9465C14.7404 41.5536 14.0591 40.7279 13.8934 39.0768V28.115C5.22961 16.4743 0.69992 10.3101 0.303862 9.63128L0.193359 8.98004V8.549C0.460472 7.2646 1.11396 6.61322 2.13599 6.61322ZM70.3678 4.21424C70.7646 7.61832 68.3182 10.7001 64.8981 11.0965C63.8377 11.2195 62.8064 11.0686 61.8781 10.6969C67.8264 9.99678 69.1875 5.06485 69.228 4.91127C66.7718 9.05385 63.6213 9.39256 61.2548 8.83703C61.305 8.15655 61.4413 7.49521 61.6556 6.8671C62.0243 5.75405 62.6349 4.73608 63.4284 3.88334C64.7162 2.49451 66.4891 1.5424 68.5214 1.30736C68.7517 1.28087 68.9772 1.26311 69.2045 1.25944C69.8243 2.09809 70.2382 3.10655 70.3678 4.21424ZM59.4983 2.05108C59.4983 2.05108 58.1968 4.82184 60.6076 7.41375L60.573 7.55767C60.4136 7.47897 60.2616 7.38725 60.1118 7.28451C58.1922 5.94529 57.7236 3.31021 59.0676 1.39663C59.5023 0.775414 60.0781 0.304561 60.7225 0C60.8555 0.0767146 60.9861 0.158625 61.1146 0.249886C62.0993 0.937408 62.7943 1.87881 63.1736 2.92541C62.1669 3.88595 61.3833 5.0702 60.907 6.40022C59.9169 5.6392 59.1409 4.32281 59.4983 2.05108ZM114.052 14.6488C114.973 14.6488 116.823 17.8043 119.613 24.1153C119.779 24.1521 121.804 28.1973 125.708 36.2604C125.948 36.1687 129.455 29.2064 136.259 15.3734C136.655 15.089 137.125 14.8506 137.686 14.6488C138.856 14.6488 139.638 15.3092 140.034 16.6118C140.034 16.8962 136.269 24.464 128.728 39.2967C124.52 48.112 122.025 52.6251 121.233 52.8361H120.313C119.328 52.8361 118.729 52.1849 118.536 50.8823C121.749 44.1217 123.36 40.6177 123.36 40.3701C117.284 28.5459 113.343 20.6938 111.548 16.8045C111.548 15.5296 112.386 14.8139 114.052 14.6488ZM108.393 5.76339C109.83 5.95601 110.547 6.56146 110.547 7.56135V40.0246C110.547 41.3363 109.949 41.9877 108.743 41.9877H108.209C107.141 41.9877 106.616 41.3364 106.616 40.0246V38.0616C104.314 40.9144 101.377 42.3362 97.8235 42.3362C91.3785 42.3362 86.9042 38.8321 84.3907 31.8332C84.1513 30.0719 84.0406 28.7601 84.0406 27.8794C84.0406 21.0914 87.4381 16.5783 94.2328 14.3309C95.9913 14.1015 97.3171 13.9823 98.2009 13.9823C101.469 13.9823 104.213 15.2941 106.423 17.9085V8.60703C106.496 6.70815 107.15 5.76339 108.393 5.76339ZM88.1655 27.3658V27.8794C88.1655 32.6311 90.3107 35.9607 94.6104 37.8782C95.7245 38.2358 96.7374 38.4101 97.6578 38.4101H98.2009C101.359 38.4101 103.808 36.9884 105.53 34.1446C106.128 33.0989 106.423 32.0255 106.423 30.9157V25.4026C106.423 22.0362 104.342 19.5962 100.171 18.0734L98.3575 17.9083H97.6576C93.0726 17.9083 89.9607 20.3483 88.3218 25.2192L88.1655 27.3658ZM79.6614 5.65008H80.0387C81.2264 5.80612 81.825 6.33806 81.825 7.23704V39.7279C81.825 40.8011 81.1068 41.3882 79.6614 41.4981C78.4737 41.2323 77.8843 40.6359 77.8843 39.7279V7.23704C77.8843 6.33806 78.4735 5.80596 79.6614 5.65008ZM61.1032 13.493H63.2669C68.5148 13.493 72.5751 16.3549 75.4569 22.0697C76.0462 24.1335 76.35 26.0874 76.35 27.9587C76.35 29.0505 75.5766 29.7017 74.0297 29.9127H52.5317C52.5317 32.5728 54.3822 34.9394 58.0834 37.0401C59.4551 37.5263 60.6336 37.7648 61.6464 37.7648H62.5578C65.366 37.7648 67.8702 36.8658 70.0615 35.0771L70.9822 34.912C72.1607 35.1873 72.7593 35.7744 72.7593 36.6916C72.0963 39.4343 68.8094 41.0305 62.9169 41.4983H62.0238C55.4041 41.4983 51.0492 38.2328 48.9406 31.6925C48.5817 30.8302 48.3974 29.6378 48.3974 28.115V26.8766C48.3974 20.7123 51.6844 16.3736 58.2491 13.8418C59.6117 13.6125 60.5693 13.493 61.1032 13.493ZM52.3383 26.5279H72.4094C72.4094 22.7119 70.1998 19.795 65.7714 17.7676C64.7309 17.4098 63.534 17.2357 62.1806 17.2357C57.4391 17.2357 54.2719 19.6114 52.6883 24.3814C52.4582 25.3264 52.3383 26.0509 52.3383 26.5279ZM44.0277 5.4576C45.2706 5.4576 45.9796 6.22812 46.1637 7.76915V9.57629C46.0534 10.9889 45.464 11.6952 44.3869 11.6952H43.6503C42.5915 11.6952 42.0023 10.9889 41.8732 9.57629V7.76915C42.0759 6.22812 42.7939 5.4576 44.0277 5.4576ZM44.0277 13.8417C45.3442 13.8417 45.998 14.3828 45.998 15.4561V39.9113C45.998 40.9662 45.3444 41.4981 44.0277 41.4981C42.5913 41.4981 41.8732 40.5534 41.8732 38.6546V16.6944C41.8732 14.7955 42.5913 13.8417 44.0277 13.8417ZM36.2326 5.4576C37.4755 5.4576 38.1845 6.22812 38.3686 7.76915V9.57629C38.2582 10.9889 37.669 11.6952 36.5918 11.6952H35.8551C34.7964 11.6952 34.2071 10.9889 34.078 9.57629V7.76915C34.2807 6.22812 34.9988 5.4576 36.2326 5.4576ZM36.2326 13.8417C37.5493 13.8417 38.2029 14.3828 38.2029 15.4561V39.9113C38.2029 40.9662 37.5493 41.4981 36.2326 41.4981C34.7962 41.4981 34.078 40.5534 34.078 38.6546V16.6944C34.078 14.7955 34.7962 13.8417 36.2326 13.8417Z" fill="white"/>
</svg>
