<svg width="40" height="29" viewBox="0 0 40 29" fill="none" xmlns="http://www.w3.org/2000/svg">
<g id="Black">
<path id="Vector" d="M7.68979 0.133511C6.83679 0.298887 6.05343 0.577417 5.20043 0.995213C1.15304 3.02326 -0.901114 7.75827 0.378383 12.1451C1.29231 15.3221 3.71204 17.7157 6.93254 18.647L7.64627 18.8559L6.95865 19.9788C6.34937 20.9971 4.63467 23.5909 3.4161 25.3492C2.71107 26.3762 2.67625 26.9594 3.28554 27.6122C3.59888 27.9517 3.6424 27.9691 4.20817 28.0039C5.80101 28.0909 9.07374 27.0029 11.2062 25.6799C12.6859 24.7573 14.3919 23.2167 15.4103 21.8675C17.2381 19.4565 18.4393 16.2969 18.8832 12.7022C18.9441 12.1886 18.9964 10.944 18.9877 9.87335C18.9877 8.07161 18.9702 7.90623 18.7526 7.08805C18.4741 6.05227 17.7343 4.52036 17.1337 3.72829C15.7672 1.93525 13.6782 0.620937 11.4848 0.168327C10.4577 -0.0405712 8.63853 -0.0579796 7.68979 0.133511Z" fill="#091638"/>
<path id="Vector_2" d="M29.0059 0.0548916C26.7428 0.368238 24.3057 1.83052 22.8608 3.728C22.2602 4.52878 21.5204 6.05199 21.2418 7.08777C21.0329 7.87113 21.0068 8.10614 21.0068 9.48138C21.0068 10.8566 21.0329 11.0916 21.2418 11.875C21.9034 14.3557 23.4527 16.3924 25.6896 17.7328C26.3598 18.1332 27.3695 18.5423 28.1006 18.7077L28.5881 18.8208L28.3095 19.3083C27.6828 20.4137 25.707 23.434 24.3318 25.3924C23.9575 25.9233 23.8792 26.1061 23.8444 26.4891C23.8008 27.0723 23.9923 27.5162 24.4275 27.8121C24.8279 28.082 25.5329 28.0907 26.6993 27.8469C29.0146 27.3595 31.1993 26.3934 33.1751 25.0007C34.1239 24.3218 35.9256 22.5114 36.648 21.493C38.2409 19.2473 39.4072 16.0704 39.7902 12.9195C40.295 8.82858 39.9121 6.47849 38.3801 4.17191C36.9788 2.07423 34.7592 0.603247 32.2438 0.124523C31.5997 0.00266647 29.6848 -0.0408535 29.0059 0.0548916Z" fill="#091638"/>
</g>
</svg>
