<svg width="51" height="52" viewBox="0 0 51 52" fill="none" xmlns="http://www.w3.org/2000/svg">
<g id="Group 7">
<rect id="Rectangle 21" y="0.0395508" width="50.0633" height="51.1284" rx="13.8473" fill="#218225"/>
<g id="selection 1">
<g id="Group">
<g id="Group_2">
<path id="Vector" d="M14.4275 18.6539C14.1116 18.6539 13.8531 18.3954 13.8474 18.0795V14.4668C13.8474 14.1452 14.1058 13.8867 14.4275 13.8867H18.0402C18.3561 13.8867 18.6146 14.1452 18.6146 14.4668V15.7247H32.5141V14.4668C32.5141 14.1509 32.7725 13.8925 33.0884 13.8867H36.7011C37.017 13.8867 37.2755 14.1452 37.2812 14.4668V18.0795C37.2812 18.3954 37.0228 18.6539 36.7011 18.6539H35.4433V32.5534H36.7011C37.017 32.5534 37.2755 32.8119 37.2812 33.1278V36.7405C37.2812 37.0564 37.0228 37.3148 36.7011 37.3206H33.0884C32.7725 37.3206 32.5141 37.0621 32.5141 36.7405V35.4826H18.6146V36.7405C18.6146 37.0564 18.3561 37.3148 18.0402 37.3206H14.4275C14.1116 37.3206 13.8531 37.0621 13.8474 36.7405V33.1278C13.8474 32.8119 14.1058 32.5534 14.4275 32.5534H15.6853V18.6539H14.4275ZM36.1325 17.5052V15.0354H33.6628V17.5052H36.1325ZM33.6628 36.1719H36.1325V33.7021H33.6628V36.1719ZM18.6146 33.1278V34.3339H32.5141V33.1278C32.5141 32.8119 32.7725 32.5534 33.0884 32.5534H34.2946V18.6539H33.0884C32.7725 18.6539 32.5141 18.3954 32.5141 18.0795V16.8734H18.6146V18.0795C18.6146 18.3954 18.3561 18.6539 18.0402 18.6539H16.8341V32.5534H18.0402C18.3561 32.5534 18.6146 32.8119 18.6146 33.1278ZM14.9961 33.7021V36.1719H17.4659V33.7021H14.9961ZM17.4659 17.5052V15.0354H14.9961V17.5052H17.4659Z" fill="white"/>
</g>
</g>
</g>
</g>
</svg>
