<svg width="50" height="51" viewBox="0 0 50 51" fill="none" xmlns="http://www.w3.org/2000/svg">
<rect y="0.682129" width="49.9665" height="49.972" rx="13.8473" fill="#218225"/>
<path d="M36.9665 24.8693V24.0704C36.9655 23.7529 36.8389 23.4486 36.6144 23.2241C36.3899 22.9996 36.0857 22.873 35.7681 22.8721H34.1863L33.3595 19.9721L33.1118 18.9855C33.0469 18.7264 32.8972 18.4965 32.6866 18.3322C32.476 18.168 32.2166 18.0788 31.9495 18.0788H28.5782V16.481C28.5776 16.2693 28.4932 16.0665 28.3435 15.9168C28.1938 15.7671 27.991 15.6828 27.7793 15.6821H22.1871C21.9755 15.6828 21.7726 15.7671 21.6229 15.9168C21.4733 16.0665 21.3889 16.2693 21.3883 16.481V18.0788H18.017C17.7499 18.0788 17.4905 18.168 17.2799 18.3322C17.0693 18.4965 16.9196 18.7264 16.8546 18.9855L16.6109 19.9681L15.7801 22.8721H14.1983C13.8808 22.873 13.5766 22.9996 13.352 23.2241C13.1275 23.4486 13.0009 23.7529 13 24.0704V24.8693C13.0006 25.0716 13.0527 25.2705 13.1512 25.4473C13.2497 25.624 13.3915 25.7729 13.5632 25.8799C13.2021 26.2509 13 26.7482 13 27.2659V32.0592C13.0006 32.2268 13.0364 32.3924 13.1052 32.5451C13.1741 32.6979 13.2743 32.8345 13.3994 32.946V34.4559C13.4004 34.7734 13.5269 35.0776 13.7515 35.3021C13.976 35.5267 14.2802 35.6532 14.5978 35.6542H17.7933C18.1108 35.6532 18.4151 35.5267 18.6396 35.3021C18.8641 35.0776 18.9907 34.7734 18.9916 34.4559V33.2575H30.9748V34.4559C30.9758 34.7734 31.1023 35.0776 31.3269 35.3021C31.5514 35.5267 31.8556 35.6532 32.1732 35.6542H35.3687C35.6862 35.6532 35.9905 35.5267 36.215 35.3021C36.4395 35.0776 36.5661 34.7734 36.567 34.4559V32.946C36.6922 32.8345 36.7924 32.6979 36.8612 32.5451C36.93 32.3924 36.9659 32.2268 36.9665 32.0592V27.2659C36.9664 26.7482 36.7643 26.2509 36.4032 25.8799C36.575 25.7729 36.7168 25.624 36.8153 25.4473C36.9138 25.2705 36.9658 25.0716 36.9665 24.8693ZM22.1871 16.481H27.7793V18.0788H22.1871V16.481ZM17.6295 19.1812C17.6509 19.0946 17.7007 19.0177 17.7709 18.9627C17.8412 18.9077 17.9278 18.8777 18.017 18.8777H31.9495C32.0387 18.8777 32.1253 18.9077 32.1955 18.9627C32.2657 19.0177 32.3155 19.0946 32.3369 19.1812L32.4608 19.6765H17.5057L17.6295 19.1812ZM17.294 20.4754H32.6725L34.0386 25.2687H22.5506C22.4567 24.7105 22.1681 24.2036 21.7359 23.838C21.3037 23.4725 20.756 23.2719 20.1899 23.2719C19.6239 23.2719 19.0761 23.4725 18.644 23.838C18.2118 24.2036 17.9231 24.7105 17.8292 25.2687H15.9279L17.294 20.4754ZM21.7318 25.2687H18.6481C18.7353 24.926 18.9342 24.622 19.2135 24.405C19.4927 24.1879 19.8363 24.0701 20.1899 24.0701C20.5436 24.0701 20.8872 24.1879 21.1664 24.405C21.4456 24.622 21.6446 24.926 21.7318 25.2687ZM13.7989 24.0704C13.7989 23.9644 13.841 23.8628 13.9159 23.7879C13.9908 23.713 14.0924 23.6709 14.1983 23.6709H15.5524L15.0971 25.2687H14.1983C14.0924 25.2687 13.9908 25.2266 13.9159 25.1517C13.841 25.0768 13.7989 24.9752 13.7989 24.8693V24.0704ZM18.1927 34.4559C18.1927 34.5618 18.1506 34.6634 18.0757 34.7383C18.0008 34.8132 17.8992 34.8553 17.7933 34.8553H14.5978C14.4918 34.8553 14.3902 34.8132 14.3153 34.7383C14.2404 34.6634 14.1983 34.5618 14.1983 34.4559V33.2575H18.1927V34.4559ZM35.7681 34.4559C35.7681 34.5618 35.726 34.6634 35.6511 34.7383C35.5762 34.8132 35.4746 34.8553 35.3687 34.8553H32.1732C32.0672 34.8553 31.9656 34.8132 31.8907 34.7383C31.8158 34.6634 31.7737 34.5618 31.7737 34.4559V33.2575H35.7681V34.4559ZM36.1676 32.0592C36.1676 32.1651 36.1255 32.2667 36.0506 32.3417C35.9757 32.4166 35.8741 32.4586 35.7681 32.4586H14.1983C14.0924 32.4586 13.9908 32.4166 13.9159 32.3417C13.841 32.2667 13.7989 32.1651 13.7989 32.0592V31.6598H36.1676V32.0592ZM36.1676 30.8609H13.7989V27.2659C13.7998 26.9484 13.9264 26.6441 14.1509 26.4196C14.3754 26.1951 14.6797 26.0685 14.9972 26.0676H34.9692C35.2868 26.0685 35.591 26.1951 35.8155 26.4196C36.0401 26.6441 36.1666 26.9484 36.1676 27.2659V30.8609ZM36.1676 24.8693C36.1676 24.9752 36.1255 25.0768 36.0506 25.1517C35.9757 25.2266 35.8741 25.2687 35.7681 25.2687H34.8694L34.414 23.6709H35.7681C35.8741 23.6709 35.9757 23.713 36.0506 23.7879C36.1255 23.8628 36.1676 23.9644 36.1676 24.0704V24.8693Z" fill="white"/>
</svg>
