<svg width="48" height="48" viewBox="0 0 48 48" fill="none" xmlns="http://www.w3.org/2000/svg">
<rect y="0.155762" width="47.4915" height="47.0243" rx="13.8473" fill="#218225"/>
<path d="M33.1388 33.1797C32.6593 33.1895 32.1883 33.0523 31.7891 32.7866C31.4919 32.5924 31.1447 32.489 30.7897 32.489C30.4347 32.489 30.0874 32.5924 29.7903 32.7866C29.387 33.0433 28.9188 33.1797 28.4407 33.1797C27.9626 33.1797 27.4944 33.0433 27.0912 32.7866C26.794 32.5922 26.4466 32.4887 26.0916 32.4887C25.7365 32.4887 25.3891 32.5922 25.092 32.7866C24.6887 33.0433 24.2205 33.1797 23.7424 33.1797C23.2643 33.1797 22.7962 33.0433 22.3929 32.7866C22.0959 32.5923 21.7488 32.4889 21.394 32.4889C21.0391 32.4889 20.692 32.5923 20.3951 32.7866C20.0294 33.0296 19.6027 33.1646 19.1638 33.1763L19.1396 32.4853C19.4638 32.4776 19.7786 32.3751 20.0451 32.1903C20.4483 31.9336 20.9163 31.7973 21.3943 31.7973C21.8723 31.7973 22.3403 31.9336 22.7435 32.1903C23.0406 32.3846 23.3879 32.488 23.7429 32.488C24.0979 32.488 24.4452 32.3846 24.7424 32.1903C25.1457 31.9334 25.614 31.7969 26.0923 31.7969C26.5705 31.7969 27.0388 31.9334 27.4421 32.1903C27.7393 32.3846 28.0866 32.488 28.4416 32.488C28.7966 32.488 29.1439 32.3846 29.441 32.1903C29.8443 31.9336 30.3125 31.7973 30.7905 31.7973C31.2686 31.7973 31.7368 31.9336 32.1401 32.1903C32.4379 32.385 32.7861 32.4887 33.1419 32.4887C33.4978 32.4887 33.8459 32.385 34.1438 32.1903C34.5426 31.9253 35.0127 31.7884 35.4914 31.7979V32.4888C35.135 32.479 34.7848 32.5832 34.4917 32.7862C34.0914 33.0524 33.6194 33.1897 33.1388 33.1797Z" fill="white"/>
<path d="M14.3491 33.1793C13.8697 33.1892 13.3988 33.052 12.9998 32.7862C12.7067 32.583 12.3565 32.4787 12 32.4884V31.7975C12.4795 31.7875 12.9506 31.9247 13.3497 32.1906C13.6426 32.3938 13.9928 32.4982 14.3491 32.4884C14.7057 32.4982 15.056 32.3937 15.3489 32.1903C15.7472 31.9245 16.2175 31.7874 16.6962 31.7975C17.1633 31.787 17.6227 31.9179 18.0142 32.173L17.6656 32.7692C17.3797 32.5768 17.0407 32.4786 16.6962 32.4884C16.3412 32.4788 15.9923 32.5829 15.7006 32.7855C15.3011 33.0521 14.8293 33.1896 14.3491 33.1793Z" fill="white"/>
<path d="M33.1399 30.7608C32.6601 30.7706 32.1887 30.6334 31.7891 30.3677C31.4917 30.1733 31.1441 30.0698 30.7888 30.0698C30.4336 30.0698 30.086 30.1733 29.7886 30.3677C29.3853 30.6243 28.9172 30.7607 28.4392 30.7607C27.9612 30.7607 27.4931 30.6243 27.0898 30.3677C26.7928 30.1734 26.4456 30.07 26.0907 30.07C25.7358 30.07 25.3887 30.1734 25.0916 30.3677C24.6884 30.6244 24.2203 30.7608 23.7423 30.7608C23.2642 30.7608 22.7961 30.6244 22.3929 30.3677C22.0959 30.1734 21.7487 30.07 21.3938 30.07C21.0389 30.07 20.6917 30.1734 20.3947 30.3677C19.9957 30.6335 19.5248 30.7707 19.0454 30.7608C18.566 30.7707 18.095 30.6335 17.696 30.3677C17.4032 30.1645 17.0532 30.0601 16.6969 30.0699C16.3408 30.0602 15.9909 30.1645 15.6982 30.3677C15.2998 30.6332 14.8296 30.7704 14.3509 30.7608C13.8714 30.7708 13.4003 30.6335 13.0012 30.3677C12.7078 30.1641 12.3569 30.0597 12 30.0699V29.3789C12.4794 29.369 12.9503 29.5062 13.3494 29.7721C13.6424 29.9752 13.9927 30.0796 14.3491 30.0699C14.7053 30.0795 15.0552 29.9752 15.3479 29.7721C15.7463 29.5065 16.2165 29.3693 16.6952 29.3789C17.1749 29.3688 17.6463 29.506 18.0456 29.7721C18.3385 29.9753 18.6887 30.0796 19.045 30.0699C19.4014 30.0796 19.7515 29.9753 20.0444 29.7721C20.4476 29.5153 20.9158 29.3789 21.3938 29.3789C21.8719 29.3789 22.34 29.5153 22.7432 29.7721C23.0403 29.9663 23.3875 30.0698 23.7424 30.0698C24.0974 30.0698 24.4446 29.9663 24.7417 29.7721C25.1449 29.5153 25.613 29.3789 26.0911 29.3789C26.5691 29.3789 27.0372 29.5153 27.4404 29.7721C27.7375 29.9663 28.0848 30.0698 28.4397 30.0698C28.7946 30.0698 29.1419 29.9663 29.4389 29.7721C29.8426 29.5154 30.311 29.379 30.7894 29.379C31.2677 29.379 31.7361 29.5154 32.1398 29.7721C32.4374 29.9663 32.785 30.0697 33.1404 30.0697C33.4958 30.0697 33.8434 29.9663 34.141 29.7721C34.5406 29.5064 35.0118 29.3692 35.4914 29.3789V30.0699C35.1343 30.0598 34.7833 30.1641 34.4896 30.3677C34.0903 30.6332 33.6193 30.7704 33.1399 30.7608Z" fill="white"/>
<path d="M33.1389 28.343C32.6594 28.3528 32.1884 28.2156 31.7892 27.9499C31.4961 27.7467 31.1459 27.6424 30.7894 27.6521C30.5278 27.6431 30.2681 27.6989 30.0332 27.8145L29.7285 27.1926C30.0583 27.031 30.4222 26.9512 30.7894 26.9601C31.2695 26.9504 31.741 27.0879 32.1405 27.3543C32.4384 27.549 32.7865 27.6527 33.1424 27.6527C33.4982 27.6527 33.8464 27.549 34.1442 27.3543C34.5428 27.0892 35.0129 26.952 35.4915 26.9612V27.6521C35.1351 27.6423 34.7849 27.7465 34.4918 27.9495C34.0915 28.2157 33.6195 28.353 33.1389 28.343Z" fill="white"/>
<path d="M28.4371 28.3428C27.9584 28.3529 27.4881 28.2158 27.0898 27.95C26.7926 27.7557 26.4453 27.6521 26.0902 27.6521C25.7351 27.6521 25.3878 27.7557 25.0906 27.95C24.6873 28.2068 24.2191 28.3432 23.7411 28.3432C23.263 28.3432 22.7948 28.2068 22.3915 27.95C22.0944 27.7558 21.7471 27.6523 21.3921 27.6523C21.0371 27.6523 20.6898 27.7558 20.3927 27.95C19.9937 28.2154 19.5231 28.3525 19.044 28.3428C18.5646 28.3527 18.0937 28.2155 17.6946 27.9497C17.4015 27.7465 17.0513 27.6422 16.6948 27.6519C16.3398 27.6423 15.991 27.7464 15.6992 27.949C15.3001 28.2153 14.8289 28.3528 14.3491 28.3428C13.8697 28.3527 13.3988 28.2155 12.9998 27.9497C12.7067 27.7465 12.3565 27.6422 12 27.6519V26.961C12.4795 26.951 12.9506 27.0882 13.3497 27.3541C13.6426 27.5573 13.9928 27.6617 14.3491 27.6519C14.7057 27.6617 15.056 27.5572 15.3489 27.3538C15.7472 27.088 16.2175 26.9509 16.6962 26.961C17.1756 26.9511 17.6465 27.0883 18.0456 27.3541C18.3385 27.5573 18.6887 27.6617 19.045 27.6519C19.4015 27.6616 19.7517 27.5573 20.0448 27.3541C20.4481 27.0973 20.9162 26.961 21.3943 26.961C21.8724 26.961 22.3406 27.0973 22.7439 27.3541C23.041 27.5483 23.3883 27.6518 23.7433 27.6518C24.0983 27.6518 24.4456 27.5483 24.7427 27.3541C25.1461 27.0972 25.6144 26.9607 26.0926 26.9607C26.5709 26.9607 27.0392 27.0972 27.4425 27.3541C27.7469 27.5588 28.1078 27.6628 28.4744 27.6515C28.5011 27.6519 28.5277 27.6505 28.5542 27.6474L28.6461 28.3321C28.5767 28.3402 28.5069 28.3438 28.4371 28.3428Z" fill="white"/>
<path d="M33.1399 25.9244C32.6601 25.9342 32.1887 25.797 31.7891 25.5312C31.4917 25.3369 31.1441 25.2334 30.7888 25.2334C30.4336 25.2334 30.086 25.3369 29.7886 25.5312C29.3853 25.7879 28.9172 25.9243 28.4392 25.9243C27.9612 25.9243 27.4931 25.7879 27.0898 25.5312C26.7928 25.337 26.4456 25.2336 26.0907 25.2336C25.7358 25.2336 25.3887 25.337 25.0916 25.5312C24.6884 25.788 24.2203 25.9244 23.7423 25.9244C23.2642 25.9244 22.7961 25.788 22.3929 25.5312C22.0959 25.337 21.7487 25.2336 21.3938 25.2336C21.0389 25.2336 20.6917 25.337 20.3947 25.5312C19.9957 25.7971 19.5248 25.9343 19.0454 25.9244C18.566 25.9343 18.095 25.7971 17.696 25.5312C17.4032 25.3281 17.0532 25.2237 16.6969 25.2334C16.3408 25.2238 15.9909 25.3281 15.6982 25.5312C15.2998 25.7968 14.8296 25.934 14.3509 25.9244C13.8714 25.9343 13.4003 25.7971 13.0012 25.5312C12.7078 25.3277 12.3569 25.2233 12 25.2334V24.5425C12.4794 24.5326 12.9503 24.6698 13.3494 24.9357C13.6424 25.1388 13.9927 25.2431 14.3491 25.2334C14.7053 25.2431 15.0552 25.1388 15.3479 24.9357C15.7463 24.6701 16.2165 24.5329 16.6952 24.5425C17.1749 24.5323 17.6463 24.6695 18.0456 24.9357C18.3385 25.1389 18.6887 25.2432 19.045 25.2334C19.4014 25.2432 19.7515 25.1389 20.0444 24.9357C20.4476 24.6788 20.9158 24.5424 21.3938 24.5424C21.8719 24.5424 22.34 24.6788 22.7432 24.9357C23.0403 25.1299 23.3875 25.2334 23.7424 25.2334C24.0974 25.2334 24.4446 25.1299 24.7417 24.9357C25.1449 24.6788 25.613 24.5424 26.0911 24.5424C26.5691 24.5424 27.0372 24.6788 27.4404 24.9357C27.7375 25.1299 28.0848 25.2334 28.4397 25.2334C28.7946 25.2334 29.1419 25.1299 29.4389 24.9357C29.8426 24.679 30.311 24.5426 30.7894 24.5426C31.2677 24.5426 31.7361 24.679 32.1398 24.9357C32.4374 25.1299 32.785 25.2333 33.1404 25.2333C33.4958 25.2333 33.8434 25.1299 34.141 24.9357C34.5406 24.67 35.0118 24.5328 35.4914 24.5425V25.2334C35.1343 25.2233 34.7833 25.3277 34.4896 25.5312C34.0903 25.7968 33.6193 25.934 33.1399 25.9244Z" fill="white"/>
<path d="M28.2164 25.6314L27.5645 25.4027C27.7324 24.9204 27.801 24.409 27.7662 23.8994C27.7313 23.3899 27.5938 22.8926 27.3618 22.4376L24.9888 17.7908C24.9653 17.7449 24.9525 17.6944 24.9511 17.6429C24.9497 17.5914 24.9599 17.5402 24.9809 17.4931C25.0019 17.4461 25.0331 17.4043 25.0723 17.3709C25.1115 17.3374 25.1577 17.3132 25.2075 17.2999L29.9365 16.039C30.0906 15.9987 30.2226 15.8991 30.3037 15.762C30.3848 15.6249 30.4084 15.4614 30.3696 15.3069C30.3307 15.1524 30.2323 15.0196 30.096 14.9372C29.9596 14.8549 29.7963 14.8297 29.6415 14.8672L23.9178 16.2352C23.7955 16.2641 23.6814 16.3208 23.5845 16.4009C23.4876 16.481 23.4104 16.5823 23.3589 16.697C23.3074 16.8117 23.2831 16.9367 23.2877 17.0623C23.2923 17.188 23.3258 17.3109 23.3855 17.4215L25.0852 20.579C25.1283 20.6593 25.1379 20.7533 25.1121 20.8407C25.0862 20.928 25.0269 21.0016 24.947 21.0454L22.7533 22.2545L22.4199 21.6493L24.3137 20.6053L22.7778 17.749C22.6679 17.5451 22.6064 17.3187 22.5981 17.0872C22.5897 16.8557 22.6346 16.6254 22.7295 16.4141C22.8243 16.2028 22.9665 16.0161 23.145 15.8685C23.3235 15.7209 23.5336 15.6164 23.7589 15.5629L29.4798 14.1952C29.8128 14.1111 30.1657 14.1627 30.4607 14.3387C30.7557 14.5147 30.9687 14.8006 31.0529 15.1337C31.137 15.4667 31.0854 15.8196 30.9094 16.1146C30.7334 16.4096 30.4475 16.6226 30.1144 16.7067L25.7982 17.8571L27.9774 22.1229C28.2518 22.6614 28.4144 23.2498 28.4555 23.8527C28.4966 24.4557 28.4153 25.0607 28.2164 25.6314Z" fill="white"/>
<path d="M21.2128 22.32L17.0146 24.6333L17.3479 25.2381L21.5461 22.9248L21.2128 22.32Z" fill="white"/>
<path d="M31.3458 23.3333C30.8334 23.3333 30.3325 23.1813 29.9064 22.8966C29.4803 22.6119 29.1482 22.2073 28.9521 21.7339C28.756 21.2604 28.7047 20.7395 28.8047 20.2369C28.9046 19.7343 29.1514 19.2726 29.5138 18.9102C29.8761 18.5479 30.3378 18.3011 30.8404 18.2012C31.343 18.1012 31.8639 18.1525 32.3374 18.3486C32.8108 18.5447 33.2155 18.8768 33.5002 19.3029C33.7849 19.729 33.9368 20.2299 33.9368 20.7423C33.9361 21.4293 33.6629 22.0879 33.1771 22.5736C32.6914 23.0594 32.0328 23.3326 31.3458 23.3333ZM31.3458 18.8423C30.9701 18.8423 30.6027 18.9537 30.2902 19.1625C29.9778 19.3713 29.7342 19.668 29.5904 20.0152C29.4466 20.3624 29.409 20.7444 29.4823 21.113C29.5556 21.4816 29.7366 21.8201 30.0023 22.0859C30.268 22.3516 30.6066 22.5326 30.9752 22.6059C31.3437 22.6792 31.7258 22.6416 32.073 22.4977C32.4202 22.3539 32.7169 22.1104 32.9257 21.7979C33.1345 21.4855 33.2459 21.1181 33.2459 20.7423C33.2452 20.2386 33.0449 19.7557 32.6887 19.3995C32.3325 19.0433 31.8496 18.8429 31.3458 18.8423Z" fill="white"/>
</svg>
